<mxfile host="app.diagrams.net" modified="2023-10-09T19:33:38.884Z" agent="Mozilla/5.0 (Windows NT 10.0; Win64; x64) AppleWebKit/537.36 (KHTML, like Gecko) Chrome/117.0.0.0 Safari/537.36" version="22.0.4" etag="gDGf22pyrDCatk2LOnGM" type="github">
  <diagram name="PÃ¡gina-1" id="gz-1wg0qmjjSncWWqM2O">
    <mxGraphModel>
      <root>
        <mxCell id="0" />
        <mxCell id="1" parent="0" />
      </root>
    </mxGraphModel>
  </diagram>
</mxfile>
